<svg width="54" height="54" viewBox="0 0 54 54" fill="none" xmlns="http://www.w3.org/2000/svg">
<path d="M53.8606 11.8415C53.6172 10.6153 53.0735 9.49323 52.3142 8.56627C52.1541 8.3643 51.9868 8.18342 51.8055 8.00254C50.4603 6.65064 48.5722 5.80731 46.5095 5.80731H7.4905C5.42785 5.80731 3.54649 6.65064 2.19491 8.00254C2.01403 8.18342 1.84676 8.3643 1.68623 8.56627C0.926543 9.49313 0.382852 10.6153 0.14618 11.8415C0.0489375 12.3147 0 12.8038 0 13.2982V40.7025C0 41.7538 0.222961 42.7644 0.620578 43.677C0.989402 44.5482 1.5332 45.3365 2.1948 45.9974C2.3625 46.1647 2.52904 46.3185 2.71076 46.4714C4.00655 47.5446 5.67918 48.1927 7.4905 48.1927H46.5095C48.3215 48.1927 50.0014 47.5446 51.2897 46.4647C51.4709 46.3185 51.6382 46.1647 51.8055 45.9974C52.4668 45.3365 53.0105 44.5482 53.3869 43.677V43.6703C53.7844 42.7577 53.9999 41.7538 53.9999 40.7026V13.2982C54 12.8038 53.9518 12.3147 53.8606 11.8415ZM4.90525 10.7126C5.57445 10.0441 6.47315 9.63941 7.4905 9.63941H46.5095C47.5269 9.63941 48.4335 10.0441 49.0948 10.7126C49.2131 10.8316 49.3246 10.9643 49.423 11.0961L28.9718 28.9198C28.4078 29.4142 27.7111 29.6583 27 29.6583C26.2961 29.6583 25.5998 29.4142 25.0283 28.9198L4.58494 11.0886C4.67543 10.9567 4.78691 10.8316 4.90525 10.7126ZM3.8321 40.7025V15.0541L18.6319 27.965L3.83959 40.8623C3.8321 40.8133 3.8321 40.7583 3.8321 40.7025ZM46.5095 44.3598H7.4905C6.82805 44.3598 6.20821 44.1857 5.67918 43.8797L21.2862 30.2786L22.7433 31.5461C23.9626 32.6057 25.4884 33.1423 27 33.1423C28.5194 33.1423 30.0451 32.6057 31.2643 31.5461L32.7206 30.2786L48.3216 43.8797C47.7918 44.1857 47.172 44.3598 46.5095 44.3598ZM50.1679 40.7025C50.1679 40.7583 50.1679 40.8133 50.1607 40.8623L35.3685 27.9725L50.1679 15.0609V40.7025Z" fill="white"/>
</svg>
