<svg width="40" height="40" viewBox="0 0 40 40" fill="none" xmlns="http://www.w3.org/2000/svg">
<path fill-rule="evenodd" clip-rule="evenodd" d="M5.85285 5.85268C4.00913 7.70089 2.56272 9.85268 1.5538 12.25C0.513635 14.7321 -0.0131436 17.3705 0.000249089 20.0893C0.0136418 22.7946 0.54935 25.4152 1.60291 27.8795C2.61629 30.2589 4.06716 32.3929 5.91089 34.2187C7.73959 36.0361 9.90492 37.4797 12.2858 38.4688C14.7277 39.4821 17.3215 40 19.9955 40H20.0893C23.1896 39.9848 26.2441 39.2514 29.0133 37.8571H35.8034C36.348 37.8571 36.8703 37.6408 37.2554 37.2557C37.6406 36.8705 37.8569 36.3482 37.8569 35.8036V29.0179C39.2511 26.2487 39.9846 23.1941 39.9997 20.0937C40.0131 17.3884 39.4953 14.7589 38.4685 12.2857C37.4775 9.89732 36.0444 7.75446 34.2186 5.91071C32.4049 4.07713 30.2518 2.61393 27.8794 1.60268C25.4151 0.549107 22.7946 0.0133928 20.0893 0H20C17.3125 0 14.7054 0.522322 12.2501 1.55357C9.85712 2.55456 7.68368 4.01516 5.85285 5.85268ZM20 36.6071C15.5804 36.6071 11.4287 34.9018 8.29925 31.8036C5.15644 28.6875 3.41092 24.5223 3.38413 20.0759C3.37521 17.817 3.80824 15.6295 4.6743 13.567C5.50911 11.5759 6.71445 9.78571 8.24568 8.25446C9.78138 6.71875 11.5671 5.51786 13.5581 4.68304C15.5983 3.82589 17.7634 3.39286 19.9955 3.39286H20.0714C24.5223 3.41071 28.6874 5.15178 31.8034 8.29911C34.9239 11.4464 36.6248 15.625 36.6069 20.0759C36.5935 22.7679 35.9239 25.442 34.665 27.8036L34.4641 28.1786V34.4643H28.1785L27.8035 34.6652C25.4419 35.9241 22.7678 36.5937 20.0759 36.6071H20Z" fill="white"/>
</svg>
