<svg width="1106" height="594" viewBox="0 0 1106 594" fill="none" xmlns="http://www.w3.org/2000/svg">
<path d="M313.006 423.458C313.142 421.86 314.387 419.888 315.902 419.222L346.234 404.904C347.749 404.238 348.794 402.261 348.53 400.655L342.351 368.707C341.987 367.099 340.219 365.658 338.622 365.522L304.58 362.552C302.983 362.416 301.013 361.071 300.247 359.553L295.84 350.951C295.072 349.533 295.127 347.134 295.958 345.752L313.809 317.149C314.641 315.767 314.491 313.563 313.518 312.341L290.857 288.222C289.683 287.096 287.49 286.746 286.072 287.514L256.007 303.338C254.589 304.106 252.19 304.052 250.81 303.121L242.916 298.341C241.435 297.507 240.28 295.481 240.217 293.879L239.786 259.86C239.722 258.259 238.463 256.43 236.875 255.894L204.957 247.47C203.364 247.134 201.342 248.088 200.511 249.47L183.945 278.703C183.112 280.184 181.787 281.255 180.987 281.237L180.188 281.218C175.589 281.114 169.479 281.476 169.479 281.476C167.877 281.54 165.7 280.491 164.83 279.171L145.97 250.637C145.102 249.217 143.018 248.47 141.41 248.833L110.485 258.437C108.972 259.003 107.729 260.875 107.893 262.479L109.737 295.929C109.801 297.531 108.753 299.608 107.333 300.476L97.3822 307.053C96.06 308.023 93.6538 308.269 92.17 307.535L60.972 293.826C59.4859 293.193 57.2752 293.643 56.1483 294.817L35.9017 318.766C34.9725 320.045 34.9228 322.245 35.8932 323.567L55.3889 350.515C56.3592 351.837 56.5072 354.141 55.8734 355.627L50.0786 368.599C49.4449 370.085 47.6114 371.544 46.0051 371.808L12.3757 377.149C10.7693 377.413 9.13356 378.976 8.89743 380.571C8.89743 380.571 5.13253 401.091 4.85443 413.388L4.85217 413.488C4.84991 413.588 6.13828 414.117 7.62433 414.751L38.6586 426.856C40.2446 427.492 41.6036 429.323 41.7673 430.927L44.3048 446.989C44.6686 448.597 43.919 450.781 42.6922 451.953L17.4785 474.389C16.2539 475.462 15.8043 477.652 16.3702 479.165L29.2744 505.664C30.0425 507.082 32.0217 508.027 33.6303 507.663L66.387 501.102C67.9957 500.738 70.177 501.588 71.2496 502.812L82.9639 515.58C84.1387 516.707 84.6866 519.02 84.2505 520.611L75.2178 552.915C74.7818 554.505 75.5363 556.523 76.9156 557.454L102.084 572.427C103.567 573.161 105.674 572.908 106.9 571.736L131.035 548.375C132.262 547.203 134.475 546.653 136.065 547.089L152.777 551.168C154.37 551.504 156.136 553.044 156.599 554.655L166.382 586.484C166.846 588.095 168.616 589.436 170.216 589.472C170.216 589.472 171.115 589.492 173.015 589.535C183.112 589.763 199.758 587.939 199.758 587.939C201.362 587.776 203.095 586.314 203.431 584.722L211.18 551.688C211.516 550.096 213.157 548.332 214.768 547.868L229.69 542.604C231.204 542.039 233.496 542.39 234.773 543.42L260.194 564.9C261.471 565.929 263.668 566.079 264.988 565.208L289.7 547.262C291.025 546.192 291.572 544.104 291.006 542.591L279.631 510.425C279.065 508.912 279.519 506.522 280.548 505.245L288.795 494.428C289.726 493.049 291.846 492.197 293.543 492.335L326.653 496.685C328.248 496.921 330.173 495.864 330.907 494.381L342.475 464.935C343.011 463.346 342.359 461.231 341.08 460.302L314.046 439.385C312.769 438.356 311.816 436.234 312.055 434.539L313.006 423.458ZM174.425 518.349C118.939 517.094 75.0678 471.09 76.3203 415.704C77.5751 360.219 123.579 316.348 178.965 317.6C234.35 318.853 278.322 364.859 277.069 420.244C275.816 475.63 229.911 519.604 174.425 518.349Z" fill="white"/>
<path d="M735.426 235.453C735.561 233.282 737.19 230.569 739.226 229.619L779.942 209.27C781.978 208.32 783.335 205.607 782.928 203.436L773.563 160.294C773.02 158.123 770.577 156.224 768.406 156.088L722.125 153.104C719.954 152.968 717.239 151.204 716.153 149.169L709.91 137.638C708.825 135.738 708.825 132.483 709.91 130.583L733.254 91.24C734.34 89.3407 734.068 86.3561 732.711 84.7281L701.224 52.7109C699.596 51.2185 696.61 50.8115 694.71 51.8969L654.401 74.2818C652.501 75.3671 649.243 75.3671 647.343 74.1461L636.486 67.9055C634.45 66.8201 632.821 64.1068 632.685 61.9362L631.057 15.8097C630.921 13.639 629.157 11.1971 626.985 10.5187L583.419 0.07244C581.247 -0.334558 578.533 1.0221 577.447 2.92143L555.868 43.0786C554.782 45.1136 553.018 46.6059 551.932 46.6059H550.846C544.603 46.6059 536.324 47.2842 536.324 47.2842C534.152 47.4199 531.167 46.0632 529.945 44.2996L503.48 6.17741C502.258 4.27809 499.408 3.32843 497.237 3.87109L455.57 17.8447C453.535 18.6587 451.906 21.2363 452.177 23.407L455.706 68.7195C455.842 70.8901 454.485 73.7391 452.585 74.9601L439.284 84.1854C437.52 85.5421 434.262 85.9491 432.227 84.9994L389.475 67.3628C387.439 66.5488 384.453 67.2271 382.96 68.8551L356.223 101.958C355.002 103.721 355.002 106.706 356.359 108.47L383.639 144.421C384.996 146.185 385.267 149.305 384.453 151.34L376.988 169.112C376.174 171.147 373.731 173.182 371.56 173.589L326.093 181.865C323.922 182.272 321.75 184.443 321.479 186.613C321.479 186.613 317 214.56 317 231.247V231.383C317 231.519 318.764 232.197 320.8 233.011L363.281 248.477C365.452 249.291 367.352 251.733 367.624 253.904L371.56 275.61C372.102 277.781 371.152 280.766 369.524 282.394L336.001 313.597C334.372 315.089 333.829 318.074 334.644 320.109L352.966 355.653C354.052 357.553 356.766 358.774 358.938 358.231L403.182 348.327C405.354 347.785 408.34 348.87 409.833 350.498L426.119 367.456C427.748 368.948 428.562 372.069 428.019 374.239L416.754 418.331C416.212 420.502 417.297 423.215 419.197 424.436L453.806 443.972C455.842 444.921 458.692 444.514 460.321 442.886L492.351 410.462C493.979 408.834 496.965 408.02 499.137 408.563L521.938 413.583C524.109 413.99 526.552 416.025 527.231 418.195L541.481 461.066C542.16 463.236 544.603 465 546.774 465C546.774 465 547.996 465 550.575 465C564.282 465 586.812 462.015 586.812 462.015C588.983 461.744 591.291 459.709 591.698 457.538L601.198 412.497C601.605 410.327 603.777 407.885 605.949 407.206L626.035 399.609C628.071 398.795 631.193 399.202 632.957 400.559L668.108 428.913C669.873 430.27 672.859 430.405 674.623 429.184L707.603 404.086C709.367 402.594 710.046 399.745 709.232 397.71L692.81 354.432C691.995 352.397 692.538 349.141 693.895 347.378L704.753 332.454C705.974 330.555 708.824 329.334 711.132 329.47L756.191 334.354C758.362 334.625 760.941 333.133 761.891 331.098L776.685 290.805C777.363 288.634 776.413 285.785 774.649 284.564L737.326 257.024C735.561 255.667 734.204 252.818 734.476 250.512L735.426 235.453ZM550.303 368.406C474.978 368.406 414.04 307.356 414.04 232.197C414.04 156.902 475.114 95.9883 550.303 95.9883C625.492 95.9883 686.566 157.038 686.566 232.197C686.566 307.356 625.628 368.406 550.303 368.406Z" fill="white"/>
<path d="M1070.3 406.553C1070.4 404.953 1071.6 402.953 1073.1 402.253L1103.1 387.253C1104.6 386.553 1105.6 384.553 1105.3 382.953L1098.4 351.153C1098 349.553 1096.2 348.153 1094.6 348.053L1060.5 345.853C1058.9 345.753 1056.9 344.453 1056.1 342.953L1051.5 334.453C1050.7 333.053 1050.7 330.653 1051.5 329.253L1068.7 300.253C1069.5 298.853 1069.3 296.653 1068.3 295.453L1045.1 271.853C1043.9 270.753 1041.7 270.453 1040.3 271.253L1010.6 287.753C1009.2 288.553 1006.8 288.553 1005.4 287.653L997.4 283.053C995.9 282.253 994.7 280.253 994.6 278.653L993.4 244.653C993.3 243.053 992 241.253 990.4 240.753L958.3 233.053C956.7 232.753 954.7 233.753 953.9 235.153L938 264.753C937.2 266.253 935.9 267.353 935.1 267.353H934.3C929.7 267.353 923.6 267.853 923.6 267.853C922 267.953 919.8 266.953 918.9 265.653L899.4 237.553C898.5 236.153 896.4 235.453 894.8 235.853L864.1 246.153C862.6 246.753 861.4 248.653 861.6 250.253L864.2 283.653C864.3 285.253 863.3 287.353 861.9 288.253L852.1 295.053C850.8 296.053 848.4 296.353 846.9 295.653L815.4 282.653C813.9 282.053 811.7 282.553 810.6 283.753L790.9 308.153C790 309.453 790 311.653 791 312.953L811.1 339.453C812.1 340.753 812.3 343.053 811.7 344.553L806.2 357.653C805.6 359.153 803.8 360.653 802.2 360.953L768.7 367.053C767.1 367.353 765.5 368.953 765.3 370.553C765.3 370.553 762 391.153 762 403.453V403.553C762 403.653 763.3 404.153 764.8 404.753L796.1 416.153C797.7 416.753 799.1 418.553 799.3 420.153L802.2 436.153C802.6 437.753 801.9 439.953 800.7 441.153L776 464.153C774.8 465.253 774.4 467.453 775 468.953L788.5 495.153C789.3 496.553 791.3 497.453 792.9 497.053L825.5 489.753C827.1 489.353 829.3 490.153 830.4 491.353L842.4 503.853C843.6 504.953 844.2 507.253 843.8 508.853L835.5 541.353C835.1 542.953 835.9 544.953 837.3 545.853L862.8 560.253C864.3 560.953 866.4 560.653 867.6 559.453L891.2 535.553C892.4 534.353 894.6 533.753 896.2 534.153L913 537.853C914.6 538.153 916.4 539.653 916.9 541.253L927.4 572.853C927.9 574.453 929.7 575.753 931.3 575.753C931.3 575.753 932.2 575.753 934.1 575.753C944.2 575.753 960.8 573.553 960.8 573.553C962.4 573.353 964.1 571.853 964.4 570.253L971.4 537.053C971.7 535.453 973.3 533.653 974.9 533.153L989.7 527.553C991.2 526.953 993.5 527.253 994.8 528.253L1020.7 549.153C1022 550.153 1024.2 550.253 1025.5 549.353L1049.8 530.853C1051.1 529.753 1051.6 527.653 1051 526.153L1038.9 494.253C1038.3 492.753 1038.7 490.353 1039.7 489.053L1047.7 478.053C1048.6 476.653 1050.7 475.753 1052.4 475.853L1085.6 479.453C1087.2 479.653 1089.1 478.553 1089.8 477.053L1100.7 447.353C1101.2 445.753 1100.5 443.653 1099.2 442.753L1071.7 422.453C1070.4 421.453 1069.4 419.353 1069.6 417.653L1070.3 406.553ZM933.9 504.553C878.4 504.553 833.5 459.553 833.5 404.153C833.5 348.653 878.5 303.753 933.9 303.753C989.3 303.753 1034.3 348.753 1034.3 404.153C1034.3 459.553 989.4 504.553 933.9 504.553Z" fill="white"/>
</svg>
